<svg xmlns="http://www.w3.org/2000/svg" xmlns:xlink="http://www.w3.org/1999/xlink" width="500" zoomAndPan="magnify" viewBox="0 0 375 374.999991" height="500" preserveAspectRatio="xMidYMid meet" version="1.0"><defs><clipPath id="cb0c20fee5"><path d="M 168 90 L 359.183594 90 L 359.183594 343.363281 L 168 343.363281 Z M 168 90 " clip-rule="nonzero"/></clipPath><clipPath id="4d40ff9793"><path d="M 15.683594 31.363281 L 250 31.363281 L 250 280 L 15.683594 280 Z M 15.683594 31.363281 " clip-rule="nonzero"/></clipPath></defs><rect x="-37.5" width="450" fill="#ffffff" y="-37.499999" height="449.999989" fill-opacity="1"/><rect x="-37.5" width="450" fill="#ffffff" y="-37.499999" height="449.999989" fill-opacity="1"/><rect x="-37.5" width="450" fill="#f1f0f0" y="-37.499999" height="449.999989" fill-opacity="1"/><g clip-path="url(#cb0c20fee5)"><path fill="#ff1616" d="M 296.429688 90.816406 L 278.402344 156.578125 L 184.542969 156.578125 L 168.675781 214.445312 L 168.4375 215.332031 L 262.292969 215.332031 L 227.4375 342.457031 L 227.195312 343.339844 L 289.945312 343.339844 L 358.9375 91.707031 L 359.179688 90.816406 Z M 296.429688 90.816406 " fill-opacity="1" fill-rule="nonzero"/></g><g clip-path="url(#4d40ff9793)"><path fill="#ff1616" d="M 233.035156 92.21875 L 249.71875 31.363281 L 61.515625 31.363281 L 15.714844 92.21875 L 106.96875 92.21875 L 55.574219 279.6875 L 119.351562 279.6875 L 170.746094 92.21875 Z M 233.035156 92.21875 " fill-opacity="1" fill-rule="nonzero"/></g></svg>